<svg xmlns="http://www.w3.org/2000/svg" xmlns:xlink="http://www.w3.org/1999/xlink" width="1176.023" height="565.069" viewBox="0 0 1176.023 565.069">
  <defs>
    <clipPath id="clip-path">
      <rect id="Rectángulo_328" data-name="Rectángulo 328" width="1176.023" height="565.069" rx="53" transform="translate(95.636 255.563)" fill="#fff"/>
    </clipPath>
    <clipPath id="clip-path-2">
      <rect id="Rectángulo_319" data-name="Rectángulo 319" width="1176.023" height="728.069" fill="#ff8a00"/>
    </clipPath>
  </defs>
  <g id="Enmascarar_grupo_2" data-name="Enmascarar grupo 2" transform="translate(-95.636 -255.563)" clip-path="url(#clip-path)">
    <g id="Grupo_23" data-name="Grupo 23" transform="translate(95.636 92.563)">
      <rect id="Rectángulo_317" data-name="Rectángulo 317" width="1176.023" height="728.069" fill="#fff"/>
      <rect id="Rectángulo_327" data-name="Rectángulo 327" width="1176.023" height="728.069" fill="#fff"/>
      <g id="Grupo_22" data-name="Grupo 22" clip-path="url(#clip-path-2)">
        <rect id="Rectángulo_318" data-name="Rectángulo 318" width="1176.023" height="728.069" fill="#d49851" opacity="0.22"/>
      </g>
    </g>
    <g id="Grupo_25" data-name="Grupo 25" transform="translate(364.866 89.863)">
      <g id="Grupo_24" data-name="Grupo 24">
        <path id="Trazado_19" data-name="Trazado 19" d="M416.166,155.109a15.671,15.671,0,0,0,15.672-15.672V-65.574H400.494v205.01A15.672,15.672,0,0,0,416.166,155.109Z" transform="translate(-85.855 67.811)" fill="#3d4159"/>
        <path id="Trazado_20" data-name="Trazado 20" d="M359.649,204.171a26.39,26.39,0,0,0,26.391-26.391V-67.352H333.258V177.781A26.39,26.39,0,0,0,359.649,204.171Z" transform="translate(-141.918 68.723)" fill="#3d4159"/>
        <path id="Trazado_21" data-name="Trazado 21" d="M385.979,99.844a7.834,7.834,0,0,0,7.836-7.834V-83.874H378.143V92.01A7.834,7.834,0,0,0,385.979,99.844Z" transform="translate(-104.492 84.811)" fill="#3d4159"/>
        <path id="Trazado_22" data-name="Trazado 22" d="M479.259,152.269a15.671,15.671,0,0,0-15.672,15.67V271.281a15.672,15.672,0,0,0,31.344,0V167.939A15.671,15.671,0,0,0,479.259,152.269Z" transform="translate(-28.247 51.129)" fill="#3d4159"/>
        <path id="Trazado_24" data-name="Trazado 24" d="M433.754,237.2A21.155,21.155,0,0,1,455,258.294l.127,41.177c.026,8.581,6.651,16.05,15.228,16.3a15.7,15.7,0,0,0,16.163-15.688V248.538A20.775,20.775,0,0,1,507.3,227.763h20.654a20.775,20.775,0,0,1,20.775,20.775l.48,171.934a8.487,8.487,0,0,0,8.487,8.489h3.2a8.489,8.489,0,0,1,8.489,8.489v26.271a31.342,31.342,0,0,0,31.342,31.342h0a31.342,31.342,0,0,0,31.342-31.342v-4.542a22.663,22.663,0,0,1,22.662-22.662h12.591a22.663,22.663,0,0,1,22.664,22.662v22.34a13.545,13.545,0,0,0,13.546,13.545h34.874c7.5,0,13.066-6.222,13.218-13.719a8.487,8.487,0,0,1,8.485-8.315h0a8.487,8.487,0,0,1,8.487,8.489V532.73a8.49,8.49,0,0,0,8.489,8.489h.072a8.489,8.489,0,0,0,8.489-8.489V498.252a8.737,8.737,0,0,1,7.654-8.815,8.492,8.492,0,0,1,9.323,8.45v11.027h.072v42.128a17.048,17.048,0,0,0,17.049,17.049h0a17.048,17.048,0,0,0,17.047-17.049V543.63a8.489,8.489,0,0,1,8.489-8.489H862.4a8.489,8.489,0,0,1,8.489,8.489v7.412a17.048,17.048,0,0,0,17.049,17.049h0a17.048,17.048,0,0,0,17.047-17.049V538.886c0-9.079,6.853-17.009,15.914-17.6A17.052,17.052,0,0,1,939.085,538.3v42.374c0,9.081,6.851,17.009,15.914,17.6a17.049,17.049,0,0,0,18.182-17.012V44.582H423.839V226.965A10.109,10.109,0,0,0,433.754,237.2Z" transform="translate(-66.39 -42.189)" fill="#3d4159"/>
        <path id="Trazado_26" data-name="Trazado 26" d="M709.775,365.947h0c-1.654,0-2.995-2.681-2.995-5.987l2.184-47.933,3.8,47.933C712.767,363.266,711.427,365.947,709.775,365.947Z" transform="translate(169.534 180.814)" fill="#fff" opacity="0.61"/>
        <path id="Trazado_27" data-name="Trazado 27" d="M467.729,230.513h0c-1.654,0-2.995-2.681-2.995-5.987l2.186-47.934,3.8,47.934C470.723,227.832,469.383,230.513,467.729,230.513Z" transform="translate(-24.29 95.884)" fill="#fff" opacity="0.61"/>
        <path id="Trazado_28" data-name="Trazado 28" d="M636.682,347.6h0c-1.652,0-2.993-2.679-2.993-5.987l2.184-47.933,3.8,47.933C639.676,344.917,638.336,347.6,636.682,347.6Z" transform="translate(107.589 163.512)" fill="#fff" opacity="0.61"/>
        <path id="Trazado_29" data-name="Trazado 29" d="M495.766,268.946h0c-1.377,0-2.494-2.232-2.494-4.986l1.819-39.911,3.167,39.911C498.258,266.714,497.141,268.946,495.766,268.946Z" transform="translate(-7.495 110.455)" fill="#fff" opacity="0.61"/>
        <path id="Trazado_30" data-name="Trazado 30" d="M447.448,153.114h0c-1.652,0-2.993-2.683-2.993-5.989l2.184-47.933,3.8,47.933C450.442,150.431,449.1,153.114,447.448,153.114Z" transform="translate(-49.199 3.346)" fill="#fff" opacity="0.61"/>
        <path id="Trazado_95" data-name="Trazado 95" d="M447.448,153.114h0c-1.652,0-2.993-2.683-2.993-5.989l2.184-47.933,3.8,47.933C450.442,150.431,449.1,153.114,447.448,153.114Z" transform="translate(-247.199 100.346)" fill="#fff" opacity="0.61"/>
      </g>
    </g>
    <g id="Grupo_53" data-name="Grupo 53" transform="translate(22.53 50.586)">
      <path id="Trazado_31" data-name="Trazado 31" d="M799.688,409.851c-3.952-.57-8.247-.27-12.232-.27l-38.565,0q-38.563,0-77.127.022c.213-.5.688-10.765-1.317-9.618a5.868,5.868,0,0,0,2.94-5.9,6.054,6.054,0,0,0-6.074-5.105H520.493a7.008,7.008,0,0,0-5.982,3.213,4.962,4.962,0,0,0-.536,4.418c-15.094,0-30.168-.9-45.259-1.164-12.2-.216-28.037-2.072-39.6,2.391-9.408,3.635-8.67,17.267,2.318,17.267H555.284a7.655,7.655,0,0,1,7.559,7.876v12.468a13.489,13.489,0,0,0,13.49,13.49h202.94c8.311,0,21.168,2.362,27.993-2.371C819.726,437.927,814.835,412.038,799.688,409.851Z" transform="translate(283.901 288.256)" fill="#3d4159"/>
      <path id="Trazado_32" data-name="Trazado 32" d="M505.8,417.586h0c0-1.654,2.683-2.993,5.989-2.991l47.933,2.219-47.936,3.77C508.48,420.582,505.8,419.24,505.8,417.586Z" transform="translate(353.288 309.615)" fill="#fff" opacity="0.61"/>
      <path id="Trazado_33" data-name="Trazado 33" d="M475.1,394.219h0c0-1.654,2.683-2.993,5.991-2.991l47.931,2.219-47.936,3.77C477.782,397.215,475.1,395.873,475.1,394.219Z" transform="translate(327.692 290.131)" fill="#fff" opacity="0.61"/>
      <g id="Grupo_40" data-name="Grupo 40" transform="translate(841.703 377.281)">
        <path id="Trazado_73" data-name="Trazado 73" d="M528.7,520.878l-31.617-.02c-7.3,0-12.477-6.03-11.562-13.458l2.965-24.056c.915-7.429,7.577-13.447,14.878-13.442l53.163.031c7.3.005,13.963-6.013,14.878-13.442l28.03-227.429" transform="translate(-485.414 -213.369)" fill="none" stroke="#5a657e" stroke-miterlimit="10" stroke-width="5.905"/>
        <g id="Grupo_37" data-name="Grupo 37" transform="translate(16.055 287.164)">
          <g id="Grupo_36" data-name="Grupo 36">
            <path id="Trazado_74" data-name="Trazado 74" d="M608.655,377.315s-104.664-.174-104.886-.2c-3.768-.46-7.885,7.876-9.2,18.622-.913,7.473-.226,14.054,1.544,17.528a3.481,3.481,0,0,0,3.457,2.683l105.254-.108c3.317-.336,5.789-4.753,6.411-9.8l.57-19.593C612.431,381.408,613.612,377.319,608.655,377.315Z" transform="translate(-494.169 -377.097)" fill="#f89724"/>
            <path id="Trazado_75" data-name="Trazado 75" d="M608.642,377.26s-29.143-.048-56.707-.1a5.493,5.493,0,0,0-5.5,5.494h0a5.494,5.494,0,0,1-5.494,5.5h-44.91a52.2,52.2,0,0,0-1.467,7.528c-.213,1.742-.33,3.427-.376,5.045h51.791a15.093,15.093,0,0,1,12.793,7.068,16.868,16.868,0,0,0,14.252,8.025l31.795-.033c3.317-.336,5.789-4.753,6.411-9.8l.57-19.593C612.418,381.353,613.6,377.264,608.642,377.26Z" transform="translate(-494.156 -377.042)" fill="#2b2e43"/>
            <path id="Trazado_76" data-name="Trazado 76" d="M601.009,397.686l-97.376-.059c-4.957,0-7.755,2.039-9.667-2.848,0,0-.59,2.438,1.086,7.354s2.538,4.309,7.493,4.312l97.376.059c4.955,0,7.283.8,7.9-4.239l3.28-13.7A10.529,10.529,0,0,1,601.009,397.686Z" transform="translate(-493.788 -367.595)" opacity="0.51" style="mix-blend-mode: luminosity;isolation: isolate"/>
            <path id="Trazado_77" data-name="Trazado 77" d="M494.567,401.529c1.311-10.744,2.081-18.613,9.2-18.622l104.886.2c1.918,0,2.91.618,3.378,1.661.587-4.238,1.014-7.451-3.378-7.454,0,0-104.664-.174-104.886-.2-3.768-.46-7.885,7.876-9.2,18.622a49.829,49.829,0,0,0-.3,9.2C494.334,403.827,494.424,402.7,494.567,401.529Z" transform="translate(-494.163 -377.097)" fill="#f75c00" opacity="0.45" style="mix-blend-mode: luminosity;isolation: isolate"/>
          </g>
        </g>
        <g id="Grupo_39" data-name="Grupo 39" transform="translate(94.472 0)">
          <path id="Trazado_78" data-name="Trazado 78" d="M548.234,314.493l-2.5,0c-5.509,0-9.413-4.55-8.723-10.154l9.083-73.69A11.708,11.708,0,0,1,557.315,220.5l2.5,0a8.717,8.717,0,0,1,8.724,10.154l-9.081,73.692A11.706,11.706,0,0,1,548.234,314.493Z" transform="translate(-536.93 -220.504)" fill="#f89724"/>
          <g id="Grupo_38" data-name="Grupo 38" transform="translate(0 0.787)" opacity="0.51" style="mix-blend-mode: multiply;isolation: isolate">
            <path id="Trazado_79" data-name="Trazado 79" d="M563.559,220.933l-8.819,71.556a11.71,11.71,0,0,1-11.225,10.143l-2.5,0a9.119,9.119,0,0,1-3.741-.785l-.264,2.135c-.69,5.6,3.215,10.15,8.723,10.154l2.5,0a11.706,11.706,0,0,0,11.225-10.141L568.54,230.3A8.8,8.8,0,0,0,563.559,220.933Z" transform="translate(-536.93 -220.933)" fill="#ffb539" opacity="0.42" style="mix-blend-mode: multiply;isolation: isolate"/>
          </g>
        </g>
        <path id="Trazado_80" data-name="Trazado 80" d="M565.939,397.4c-1.313,10.744-5.43,19.083-9.2,18.622s-5.756-9.543-4.445-20.288,5.43-19.083,9.2-18.622S567.25,386.658,565.939,397.4Z" transform="translate(-429.981 -89.933)" fill="#2b2e43"/>
        <path id="Trazado_81" data-name="Trazado 81" d="M560.421,391.052c-.427,3.492-2.136,6.156-3.818,5.951s-2.7-3.2-2.274-6.7,2.136-6.156,3.818-5.951S560.848,387.561,560.421,391.052Z" transform="translate(-428.031 -83.888)" fill="#5a657e"/>
      </g>
    </g>
    <g id="Grupo_35" data-name="Grupo 35" transform="translate(1012.765 338.393)">
      <g id="Grupo_34" data-name="Grupo 34" transform="translate(0 0)">
        <g id="Grupo_27" data-name="Grupo 27" transform="translate(53.1 301)">
          <ellipse id="Elipse_2" data-name="Elipse 2" cx="66" cy="18" rx="66" ry="18" transform="translate(-5.865 105.607)" fill="#313f5e" opacity="0.12" style="mix-blend-mode: multiply;isolation: isolate"/>
          <path id="Trazado_35" data-name="Trazado 35" d="M365.179,167.7l1.737,123.589c0,2.51,21.973,7.764,49.077,7.764s49.079-5.254,49.079-7.764L466.808,167.7Z" transform="translate(-354.3 -167.064)" fill="#f89724"/>
          <path id="Trazado_36" data-name="Trazado 36" d="M468.305,174.2H366.537a3.253,3.253,0,0,1-3.253-3.253h0a3.253,3.253,0,0,1,3.253-3.253H468.305a3.253,3.253,0,0,1,3.253,3.253h0A3.253,3.253,0,0,1,468.305,174.2Z" transform="translate(-355.88 -167.064)" fill="#5a657e"/>
          <path id="Trazado_37" data-name="Trazado 37" d="M399.905,264.773c-12.455,5.149-24.658,3.877-33.779.988v18.914c0,2.51,21.973,7.764,49.077,7.764s49.079-5.254,49.079-7.764L465.5,175.62C458.622,208.609,440.565,247.964,399.905,264.773Z" transform="translate(-353.51 -160.456)" fill="#3d4159" opacity="0.39" style="mix-blend-mode: multiply;isolation: isolate"/>
          <path id="Trazado_38" data-name="Trazado 38" d="M399.493,167.36v.088H373.9a4.434,4.434,0,0,0-4.434,4.434v10.392a3.013,3.013,0,0,0,2.415,3.018,2.905,2.905,0,0,0,3.391-2.863v-2.151a9.412,9.412,0,0,1,10.491-9.358c.205.024.409.051.613.081a15.53,15.53,0,0,1,13.114,15.487v12.485a6.363,6.363,0,0,0,5.8,6.47,6.133,6.133,0,0,0,6.462-6.125V179.984a3.353,3.353,0,0,1,2.279-3.226,4.593,4.593,0,0,1,3.932.578,3.239,3.239,0,0,1,1.33,2.707v29a4.151,4.151,0,0,0,3.1,4.014h0a5.621,5.621,0,0,1,4.2,5.439V232.76a7.371,7.371,0,0,0,6.47,7.436,7.175,7.175,0,0,0,7.88-7.141v-56.79a3.189,3.189,0,0,1,3.178-3.189h0a4.577,4.577,0,0,1,.732.059,3.308,3.308,0,0,1,2.676,3.319v21.14a6.368,6.368,0,0,0,5.8,6.472,6.133,6.133,0,0,0,6.462-6.125v-25.2a5.385,5.385,0,0,0-5.386-5.386Z" transform="translate(-350.722 -167.351)" fill="#3d4159"/>
          <path id="Trazado_39" data-name="Trazado 39" d="M403.663,219.156h0a2.277,2.277,0,0,1-2.278-2.278l1.363-28.8,3.193,28.8A2.277,2.277,0,0,1,403.663,219.156Z" transform="translate(-324.11 -150.068)" fill="#fff" opacity="0.61"/>
          <path id="Trazado_40" data-name="Trazado 40" d="M413.865,192.2h0a1.139,1.139,0,0,1-1.139-1.139l.68-14.4,1.6,14.4A1.138,1.138,0,0,1,413.865,192.2Z" transform="translate(-314.654 -159.591)" fill="#fff" opacity="0.61"/>
          <path id="Trazado_41" data-name="Trazado 41" d="M398.321,199.309h0a1.26,1.26,0,0,1-1.26-1.26l.754-15.938,1.768,15.938A1.26,1.26,0,0,1,398.321,199.309Z" transform="translate(-327.716 -155.044)" fill="#fff" opacity="0.61"/>
          <path id="Trazado_42" data-name="Trazado 42" d="M387.726,193.847h0a1.26,1.26,0,0,1-1.26-1.26l.754-15.938,1.766,15.938A1.258,1.258,0,0,1,387.726,193.847Z" transform="translate(-336.55 -159.598)" fill="#fff" opacity="0.61"/>
          <path id="Trazado_43" data-name="Trazado 43" d="M370.308,179.842h0a.63.63,0,0,1-.629-.631l.376-7.968.884,7.968A.631.631,0,0,1,370.308,179.842Z" transform="translate(-350.548 -164.106)" fill="#fff" opacity="0.61"/>
          <g id="Grupo_26" data-name="Grupo 26" transform="translate(11.868 22.015)" opacity="0.43" style="mix-blend-mode: multiply;isolation: isolate">
            <path id="Trazado_44" data-name="Trazado 44" d="M465.5,212.9a56.7,56.7,0,0,1-8.377,12.5c-8.479,9.439-19.805,14.5-33.661,15.052-20.412.823-36.522-4.806-47.915-16.688a58.688,58.688,0,0,1-9.424-13.209v9.309a59.7,59.7,0,0,0,5.858,7.2c11.638,12.149,27.655,18.292,47.657,18.292q1.983,0,4.02-.079c15.238-.605,27.729-6.215,37.124-16.673a55.973,55.973,0,0,0,4.72-6.09Z" transform="translate(-366.126 -153.342)" fill="#313f5e"/>
          </g>
          <path id="Trazado_47" data-name="Trazado 47" d="M368.675,178.2h-9.143s-8.628,90.246,69.06,87.129c60.338-2.421,53.619-87.129,53.619-87.129h-8.432" transform="translate(-359.247 -158.303)" fill="none" stroke="#5a657e" stroke-linecap="round" stroke-miterlimit="10" stroke-width="2.634"/>
          <path id="Trazado_48" data-name="Trazado 48" d="M466.635,172.671l.046-1.626H365.227l.046,1.626Z" transform="translate(-354.26 -164.271)" fill="#313f5e" opacity="0.21" style="mix-blend-mode: multiply;isolation: isolate"/>
          <line id="Línea_5" data-name="Línea 5" y1="0.347" x2="24.056" transform="translate(22.647 1.64)" fill="none" stroke="#fff" stroke-linecap="round" stroke-miterlimit="10" stroke-width="0.947" opacity="0.61"/>
          <path id="Trazado_49" data-name="Trazado 49" d="M369.47,171.6V174.2h7.8a9.361,9.361,0,0,1,8.492-3.567c.205.024.409.051.613.081a14.863,14.863,0,0,1,7.636,3.486h47.476a3.185,3.185,0,0,1,2.637-1.412,4.577,4.577,0,0,1,.732.059,3.093,3.093,0,0,1,2.061,1.353H459.8V172.45a5.367,5.367,0,0,0-2.9-4.755H371.836A4.417,4.417,0,0,0,369.47,171.6Z" transform="translate(-350.722 -167.064)" fill="#3d4159"/>
        </g>
      </g>
    </g>
  </g>
</svg>
