<svg xmlns="http://www.w3.org/2000/svg" xmlns:xlink="http://www.w3.org/1999/xlink" width="1920" height="1279.063" viewBox="0 0 1920 1279.063">
  <defs>
    <clipPath id="clip-path">
      <rect id="Rectángulo_324" data-name="Rectángulo 324" width="1920" height="1279.063" transform="translate(0 0)" fill="none"/>
    </clipPath>
  </defs>
  <g id="Grupo_54" data-name="Grupo 54" transform="translate(0 229.667)">
    <g id="Grupo_43" data-name="Grupo 43" transform="translate(0 -229.667)" clip-path="url(#clip-path)">
      <rect id="Rectángulo_323" data-name="Rectángulo 323" width="1920" height="1279.063" transform="translate(0 0)" fill="#ffb539"/>
      <path id="Trazado_82" data-name="Trazado 82" d="M2215.608-78.656H166.633V74.532c0,10.913,8.655,20.26,19.569,20.211a41.748,41.748,0,0,1,41.941,41.618l.246,81.259c.051,16.937,13.128,31.675,30.057,32.166a30.975,30.975,0,0,0,31.9-30.961V117.1a41,41,0,0,1,41-41H372.1a41,41,0,0,1,41,41h.947V663.168a16.751,16.751,0,0,0,16.753,16.75h6.31a16.753,16.753,0,0,1,16.753,16.753v51.848a61.856,61.856,0,0,0,61.855,61.855h0a61.856,61.856,0,0,0,61.855-61.855v-8.963A44.728,44.728,0,0,1,622.3,694.828h24.85a44.728,44.728,0,0,1,44.726,44.728v44.086a26.731,26.731,0,0,0,26.731,26.732h68.826c14.8,0,25.787-12.283,26.086-27.077a16.75,16.75,0,0,1,16.748-16.407h0a16.753,16.753,0,0,1,16.753,16.753V884.708a16.751,16.751,0,0,0,16.753,16.75h.141a16.751,16.751,0,0,0,16.753-16.75V816.663c0-8.75,6.4-16.563,15.107-17.393a16.757,16.757,0,0,1,18.4,16.673v21.763h.141v83.141a33.646,33.646,0,0,0,33.644,33.646h0A33.647,33.647,0,0,0,981.6,920.847V906.219a16.753,16.753,0,0,1,16.753-16.753h33.787a16.753,16.753,0,0,1,16.753,16.753v14.628a33.645,33.645,0,1,0,67.29,0v-23.99c0-17.92,13.524-33.569,31.406-34.726a33.651,33.651,0,0,1,35.886,33.574v83.625c0,17.92,13.522,33.567,31.406,34.726a89.7,89.7,0,0,1,14.333,0c17.882-1.16,31.406-16.806,31.406-34.726V895.706a33.65,33.65,0,0,1,35.884-33.574c17.884,1.157,31.406,16.806,31.406,34.726v23.99a33.646,33.646,0,1,0,67.292,0V906.219a16.753,16.753,0,0,1,16.752-16.753h33.787a16.751,16.751,0,0,1,16.75,16.753v14.628a33.648,33.648,0,0,0,33.646,33.646h0a33.647,33.647,0,0,0,33.646-33.646V837.706h.141V815.944a16.757,16.757,0,0,1,18.4-16.673c8.709.829,15.107,8.643,15.107,17.393v68.045a16.749,16.749,0,0,0,16.753,16.75h.141a16.751,16.751,0,0,0,16.753-16.75V783.642a16.751,16.751,0,0,1,16.75-16.753h0a16.752,16.752,0,0,1,16.748,16.407c.3,14.794,11.287,27.077,26.086,27.077h68.823a26.731,26.731,0,0,0,26.732-26.732V739.556a44.73,44.73,0,0,1,44.728-44.728h24.847a44.728,44.728,0,0,1,44.728,44.728v8.963a61.854,61.854,0,0,0,61.852,61.855h0a61.854,61.854,0,0,0,61.852-61.855V696.671a16.753,16.753,0,0,1,16.753-16.753h6.313a16.749,16.749,0,0,0,16.75-16.75V117.1h.947a41,41,0,0,1,41-41h40.763a41,41,0,0,1,41,41V218.826a30.975,30.975,0,0,0,31.9,30.961c16.929-.492,30-15.229,30.054-32.166l.248-81.259a41.746,41.746,0,0,1,41.941-41.618c10.913.049,19.569-9.3,19.569-20.211V-78.656Z" transform="translate(259.947 -123.172)" fill="#f75c00" opacity="0.51"/>
      <path id="Trazado_83" data-name="Trazado 83" d="M946.311,1047.456a37.816,37.816,0,0,1-37.99-37.7l-.225-73.608c-.046-15.339-11.891-28.69-27.226-29.135a28.056,28.056,0,0,0-28.892,28.045V1027.2a37.138,37.138,0,0,1-37.138,37.138H777.914a37.138,37.138,0,0,1-37.138-37.138h-.858V532.561a15.175,15.175,0,0,0-15.176-15.173h-5.716a15.173,15.173,0,0,1-15.173-15.176V455.249a56.03,56.03,0,0,0-56.031-56.031h0a56.03,56.03,0,0,0-56.028,56.031v8.118a40.514,40.514,0,0,1-40.515,40.515H528.77a40.514,40.514,0,0,1-40.515-40.515V423.433a24.215,24.215,0,0,0-24.215-24.215H401.7c-13.407,0-23.36,11.126-23.629,24.527A15.176,15.176,0,0,1,362.9,438.609h0a15.173,15.173,0,0,1-15.173-15.176V331.885a15.175,15.175,0,0,0-15.176-15.176h-.128a15.173,15.173,0,0,0-15.173,15.176v61.637c0,7.923-5.8,15-13.686,15.754a15.179,15.179,0,0,1-16.666-15.1V374.46h-.125V299.147a30.477,30.477,0,0,0-30.479-30.477h0a30.477,30.477,0,0,0-30.477,30.477V312.4a15.173,15.173,0,0,1-15.173,15.173h-30.6A15.175,15.175,0,0,1,164.861,312.4V299.147a30.477,30.477,0,0,0-30.477-30.477h0a30.477,30.477,0,0,0-30.477,30.477v21.732c0,16.233-12.25,30.405-28.449,31.455a30.479,30.479,0,0,1-32.5-30.41V246.171c0-16.23-12.25-30.405-28.449-31.455A30.48,30.48,0,0,0-18,245.129v959.4H964.036V1065.763C964.036,1055.876,956.2,1047.41,946.311,1047.456Z" transform="translate(-28.08 334.386)" fill="#f75c00" opacity="0.2"/>
      <rect id="Rectángulo_325" data-name="Rectángulo 325" width="1920" height="1279.063" transform="translate(0 0)" fill="#241c32" style="mix-blend-mode: color;isolation: isolate"/>
      <rect id="Rectángulo_326" data-name="Rectángulo 326" width="1920" height="1279.063" transform="translate(0 0)" fill="#241c32" style="mix-blend-mode: hard-light;isolation: isolate"/>
      <rect id="Rectángulo_329" data-name="Rectángulo 329" width="1920" height="1279.063" transform="translate(0 0)" fill="#3d4159" style="mix-blend-mode: color;isolation: isolate"/>
    </g>
  </g>
</svg>
