<svg xmlns="http://www.w3.org/2000/svg" width="642.435" height="745.37" viewBox="0 0 642.435 745.37">
  <g id="Grupo_79" data-name="Grupo 79" transform="translate(-31.201 -33)">
    <g id="Grupo_76" data-name="Grupo 76" transform="translate(-131.77 -87.51)">
      <g id="Grupo_58" data-name="Grupo 58" transform="translate(191.34 2.393)">
        <path id="Trazado_100" data-name="Trazado 100" d="M413.945,139.446A13.451,13.451,0,0,0,427.4,125.995V68.287h-26.9v57.708A13.451,13.451,0,0,0,413.945,139.446Z" transform="translate(-294.668 49.83)" fill="#3d4159"/>
        <path id="Trazado_101" data-name="Trazado 101" d="M355.909,181.371A22.651,22.651,0,0,0,378.56,158.72v-91.4h-45.3v91.4A22.651,22.651,0,0,0,355.909,181.371Z" transform="translate(-333.258 50.797)" fill="#3d4159"/>
        <path id="Trazado_136" data-name="Trazado 136" d="M347.593,181.371c7.917,0,14.335-10.141,14.335-22.651v-91.4H333.258v91.4C333.258,171.23,339.676,181.371,347.593,181.371Z" transform="translate(-361.627 50.797)" fill="none"/>
        <path id="Trazado_102" data-name="Trazado 102" d="M384.868,92.013a6.724,6.724,0,0,0,6.726-6.724V53.7H378.143V85.289A6.724,6.724,0,0,0,384.868,92.013Z" transform="translate(-307.496 64.421)" fill="#3d4159"/>
        <path id="Trazado_103" data-name="Trazado 103" d="M477.038,152.269a13.45,13.45,0,0,0-13.451,13.449v88.7a13.451,13.451,0,0,0,26.9,0v-88.7A13.45,13.45,0,0,0,477.038,152.269Z" transform="translate(-254.164 20.251)" fill="#3d4159"/>
        <path id="Trazado_104" data-name="Trazado 104" d="M432.349,209.908a18.157,18.157,0,0,1,18.239,18.1l.109,35.342c.022,7.365,5.709,13.775,13.07,13.989a13.472,13.472,0,0,0,13.873-13.465V219.635A17.831,17.831,0,0,1,495.471,201.8H513.2a17.831,17.831,0,0,1,17.831,17.831l.412,147.57a7.284,7.284,0,0,0,7.284,7.286h2.745a7.286,7.286,0,0,1,7.286,7.286v22.548a26.9,26.9,0,0,0,26.9,26.9h0a26.9,26.9,0,0,0,26.9-26.9v-3.9a19.451,19.451,0,0,1,19.451-19.451h10.807a19.452,19.452,0,0,1,19.452,19.451V419.6A11.626,11.626,0,0,0,663.9,431.225h29.932c6.436,0,11.214-5.34,11.345-11.775a7.284,7.284,0,0,1,7.283-7.136h0a7.284,7.284,0,0,1,7.284,7.286v43.954a7.287,7.287,0,0,0,7.286,7.286h.061a7.286,7.286,0,0,0,7.286-7.286V433.962a7.5,7.5,0,0,1,6.57-7.566,7.288,7.288,0,0,1,8,7.253v9.464h.061v36.158A14.632,14.632,0,0,0,763.641,493.9h0a14.632,14.632,0,0,0,14.632-14.633V472.91a7.286,7.286,0,0,1,7.286-7.286h14.694a7.286,7.286,0,0,1,7.286,7.286v6.362A14.632,14.632,0,0,0,822.172,493.9h0A14.632,14.632,0,0,0,836.8,479.272V468.838c0-7.793,5.882-14.6,13.659-15.1a14.635,14.635,0,0,1,15.607,14.6v36.369c0,7.794,5.88,14.6,13.659,15.1a14.633,14.633,0,0,0,15.606-14.6V162.7h-471.5v38.42A8.677,8.677,0,0,0,432.349,209.908Z" transform="translate(-281.269 -44.582)" fill="#3d4159"/>
        <path id="Trazado_105" data-name="Trazado 105" d="M709.35,358.306h0c-1.42,0-2.57-2.3-2.57-5.139l1.875-41.14,3.264,41.14C711.919,356,710.768,358.306,709.35,358.306Z" transform="translate(-118.873 108.919)" fill="#fff" opacity="0.61"/>
        <path id="Trazado_106" data-name="Trazado 106" d="M467.3,222.872h0c-1.42,0-2.57-2.3-2.57-5.139l1.876-41.142,3.264,41.142C469.875,220.57,468.724,222.872,467.3,222.872Z" transform="translate(-250.93 55.217)" fill="#fff" opacity="0.61"/>
        <path id="Trazado_107" data-name="Trazado 107" d="M636.258,339.955h0c-1.418,0-2.569-2.3-2.569-5.139l1.874-41.14,3.264,41.14C638.828,337.655,637.677,339.955,636.258,339.955Z" transform="translate(-161.683 96.67)" fill="#fff" opacity="0.61"/>
        <path id="Trazado_108" data-name="Trazado 108" d="M495.413,262.583h0c-1.182,0-2.141-1.915-2.141-4.28l1.561-34.256,2.718,34.256C497.552,260.668,496.593,262.583,495.413,262.583Z" transform="translate(-240.559 60.998)" fill="#fff" opacity="0.61"/>
        <path id="Trazado_110" data-name="Trazado 110" d="M447.024,145.473h0c-1.418,0-2.569-2.3-2.569-5.141l1.875-41.14,3.264,41.14C449.594,143.17,448.443,145.473,447.024,145.473Z" transform="translate(-439.377 70.016)" fill="#fff" opacity="0.61"/>
      </g>
    </g>
    <g id="Grupo_77" data-name="Grupo 77" transform="translate(164.879 533.108)">
      <g id="Grupo_74" data-name="Grupo 74" transform="translate(0 -10)">
        <path id="Trazado_111" data-name="Trazado 111" d="M625.791,400.226a47.153,47.153,0,0,0-6.591-.145H598.419q-20.78,0-41.561.012c.115-.269.371-5.8-.71-5.183a3.162,3.162,0,0,0,1.584-3.178,3.262,3.262,0,0,0-3.273-2.751H475.344a3.777,3.777,0,0,0-3.223,1.731,2.674,2.674,0,0,0-.289,2.381c-8.134,0-16.256-.483-24.388-.628-6.573-.117-15.108-1.117-21.339,1.289-5.069,1.959-4.672,9.3,1.249,9.3h66.738a4.125,4.125,0,0,1,4.073,4.244v6.719a7.268,7.268,0,0,0,7.269,7.269H614.791c4.478,0,11.406,1.273,15.084-1.278C636.589,415.355,633.954,401.405,625.791,400.226Z" transform="translate(-422.585 -227.345)" fill="#3d4159"/>
        <path id="Trazado_112" data-name="Trazado 112" d="M505.8,416.207h0c0-.891,1.446-1.613,3.227-1.612l25.829,1.2-25.831,2.032C507.245,417.821,505.8,417.1,505.8,416.207Z" transform="translate(-423.568 -227.648)" fill="#fff" opacity="0.61"/>
        <path id="Trazado_113" data-name="Trazado 113" d="M475.1,392.84h0c0-.891,1.446-1.613,3.228-1.612l25.828,1.2-25.831,2.032C476.547,394.454,475.1,393.731,475.1,392.84Z" transform="translate(-423.206 -227.372)" fill="#fff" opacity="0.61"/>
      </g>
    </g>
    <g id="Grupo_80" data-name="Grupo 80" transform="translate(164.879 594.108)">
      <g id="Grupo_74-2" data-name="Grupo 74" transform="translate(0 -10)">
        <path id="Trazado_111-2" data-name="Trazado 111" d="M625.791,400.226a47.153,47.153,0,0,0-6.591-.145H598.419q-20.78,0-41.561.012c.115-.269.371-5.8-.71-5.183a3.162,3.162,0,0,0,1.584-3.178,3.262,3.262,0,0,0-3.273-2.751H475.344a3.777,3.777,0,0,0-3.223,1.731,2.674,2.674,0,0,0-.289,2.381c-8.134,0-16.256-.483-24.388-.628-6.573-.117-15.108-1.117-21.339,1.289-5.069,1.959-4.672,9.3,1.249,9.3h66.738a4.125,4.125,0,0,1,4.073,4.244v6.719a7.268,7.268,0,0,0,7.269,7.269H614.791c4.478,0,11.406,1.273,15.084-1.278C636.589,415.355,633.954,401.405,625.791,400.226Z" transform="translate(-422.585 -227.345)" fill="none"/>
      </g>
    </g>
    <g id="Grupo_78" data-name="Grupo 78" transform="translate(244.234 630.092)">
      <g id="Grupo_68" data-name="Grupo 68" transform="translate(0 0)">
        <g id="Grupo_67" data-name="Grupo 67">
          <ellipse id="Elipse_3" data-name="Elipse 3" cx="35.5" cy="9.5" rx="35.5" ry="9.5" transform="translate(0.13 56.908)" fill="#313f5e" opacity="0.12" style="mix-blend-mode: multiply;isolation: isolate"/>
          <path id="Trazado_123" data-name="Trazado 123" d="M365.179,167.7l.936,66.6c0,1.353,11.84,4.184,26.446,4.184s26.447-2.831,26.447-4.184l.936-66.6Z" transform="translate(-356.157 -167.355)" fill="#f89724"/>
          <path id="Trazado_124" data-name="Trazado 124" d="M419.876,171.2H365.037a1.753,1.753,0,0,1-1.753-1.753h0a1.753,1.753,0,0,1,1.753-1.753h54.839a1.753,1.753,0,0,1,1.753,1.753h0A1.753,1.753,0,0,1,419.876,171.2Z" transform="translate(-356.134 -167.355)" fill="#5a657e"/>
          <path id="Trazado_125" data-name="Trazado 125" d="M384.328,223.661a26.5,26.5,0,0,1-18.2.533v10.192c0,1.353,11.84,4.184,26.446,4.184s26.447-2.831,26.447-4.184l.655-58.766C415.969,193.4,406.238,214.6,384.328,223.661Z" transform="translate(-356.168 -167.449)" fill="#3d4159" opacity="0.39" style="mix-blend-mode: multiply;isolation: isolate"/>
          <path id="Trazado_126" data-name="Trazado 126" d="M385.648,167.356v.047H371.859a2.389,2.389,0,0,0-2.389,2.389v5.6a1.623,1.623,0,0,0,1.3,1.627,1.566,1.566,0,0,0,1.827-1.543v-1.159a5.072,5.072,0,0,1,5.653-5.043c.111.013.22.028.33.043a8.369,8.369,0,0,1,7.066,8.345v6.728a3.429,3.429,0,0,0,3.128,3.486,3.3,3.3,0,0,0,3.482-3.3V174.159a1.807,1.807,0,0,1,1.228-1.738,2.475,2.475,0,0,1,2.119.311,1.745,1.745,0,0,1,.716,1.459v15.627a2.237,2.237,0,0,0,1.67,2.163h0a3.029,3.029,0,0,1,2.263,2.931V202.6a3.972,3.972,0,0,0,3.486,4.007,3.866,3.866,0,0,0,4.246-3.848v-30.6a1.718,1.718,0,0,1,1.713-1.718h0a2.467,2.467,0,0,1,.394.032,1.783,1.783,0,0,1,1.442,1.789v11.392a3.431,3.431,0,0,0,3.128,3.487,3.3,3.3,0,0,0,3.482-3.3V170.253a2.9,2.9,0,0,0-2.9-2.9Z" transform="translate(-356.207 -167.351)" fill="#3d4159"/>
          <path id="Trazado_127" data-name="Trazado 127" d="M402.612,204.825h0a1.227,1.227,0,0,1-1.227-1.227l.734-15.519,1.72,15.519A1.227,1.227,0,0,1,402.612,204.825Z" transform="translate(-356.585 -167.596)" fill="#fff" opacity="0.61"/>
          <path id="Trazado_128" data-name="Trazado 128" d="M413.34,185.031h0a.614.614,0,0,1-.614-.614l.367-7.76.86,7.76A.613.613,0,0,1,413.34,185.031Z" transform="translate(-356.719 -167.461)" fill="#fff" opacity="0.61"/>
          <path id="Trazado_129" data-name="Trazado 129" d="M397.74,191.378h0a.679.679,0,0,1-.679-.679l.406-8.588.953,8.588A.679.679,0,0,1,397.74,191.378Z" transform="translate(-356.533 -167.525)" fill="#fff" opacity="0.61"/>
          <path id="Trazado_130" data-name="Trazado 130" d="M387.145,185.916h0a.679.679,0,0,1-.679-.679l.406-8.588.952,8.588A.678.678,0,0,1,387.145,185.916Z" transform="translate(-356.408 -167.461)" fill="#fff" opacity="0.61"/>
          <path id="Trazado_131" data-name="Trazado 131" d="M370.018,175.877h0a.34.34,0,0,1-.339-.34l.2-4.294.476,4.294A.34.34,0,0,1,370.018,175.877Z" transform="translate(-356.21 -167.397)" fill="#fff" opacity="0.61"/>
          <g id="Grupo_66" data-name="Grupo 66" transform="translate(9.556 42.692)" opacity="0.43" style="mix-blend-mode: multiply;isolation: isolate">
            <path id="Trazado_132" data-name="Trazado 132" d="M419.677,211.819a30.552,30.552,0,0,1-4.514,6.734c-4.569,5.086-10.672,7.816-18.139,8.111-11,.444-19.681-2.59-25.82-8.992a31.624,31.624,0,0,1-5.078-7.118v5.016a32.169,32.169,0,0,0,3.157,3.882c6.271,6.547,14.9,9.857,25.68,9.857q1.069,0,2.166-.042c8.211-.326,14.942-3.349,20-8.985A30.16,30.16,0,0,0,419.677,217Z" transform="translate(-366.126 -210.554)" fill="#313f5e"/>
          </g>
          <path id="Trazado_133" data-name="Trazado 133" d="M364.327,178.2H359.4s-4.649,48.63,37.214,46.95c32.514-1.3,28.893-46.95,28.893-46.95h-4.544" transform="translate(-356.086 -167.479)" fill="none" stroke="#5a657e" stroke-linecap="round" stroke-miterlimit="10" stroke-width="2.634"/>
          <path id="Trazado_134" data-name="Trazado 134" d="M419.872,171.921l.025-.876h-54.67l.025.876Z" transform="translate(-356.157 -167.395)" fill="#313f5e" opacity="0.21" style="mix-blend-mode: multiply;isolation: isolate"/>
          <line id="Línea_6" data-name="Línea 6" y1="0.187" x2="12.963" transform="translate(15.364 0.884)" fill="none" stroke="#fff" stroke-linecap="round" stroke-miterlimit="10" stroke-width="0.947" opacity="0.61"/>
          <path id="Trazado_135" data-name="Trazado 135" d="M369.47,169.8v1.4h4.206a5.045,5.045,0,0,1,4.576-1.922c.111.013.22.028.33.043A8.009,8.009,0,0,1,382.7,171.2H408.28a1.716,1.716,0,0,1,1.421-.761,2.467,2.467,0,0,1,.394.032,1.667,1.667,0,0,1,1.111.729h6.941v-.944a2.892,2.892,0,0,0-1.565-2.562H370.745A2.38,2.38,0,0,0,369.47,169.8Z" transform="translate(-356.207 -167.355)" fill="#3d4159"/>
        </g>
      </g>
    </g>
  </g>
</svg>
